<?xml version="1.0" encoding="UTF-8"?>
<svg xmlns="http://www.w3.org/2000/svg" width="1000" height="957" viewBox="0 0 1000 957" role="img" aria-labelledby="title desc">
  <title id="title">Repo Growth for MacRimi/repo-growth</title>
  <desc id="desc">Repository growth dashboard showing stars, forks, release downloads over time.</desc>
  <defs>
    <linearGradient id="background" x1="0" y1="0" x2="1" y2="1">
      <stop offset="0" stop-color="#fafafa"/><stop offset="1" stop-color="#f4f4f5"/>
    </linearGradient>
    <linearGradient id="fill-stars" x1="0" y1="0" x2="0" y2="1"><stop offset="0" stop-color="#8b5cf6" stop-opacity=".24"/><stop offset="1" stop-color="#8b5cf6" stop-opacity="0"/></linearGradient><linearGradient id="fill-forks" x1="0" y1="0" x2="0" y2="1"><stop offset="0" stop-color="#06b6d4" stop-opacity=".24"/><stop offset="1" stop-color="#06b6d4" stop-opacity="0"/></linearGradient><linearGradient id="fill-downloads" x1="0" y1="0" x2="0" y2="1"><stop offset="0" stop-color="#10b981" stop-opacity=".24"/><stop offset="1" stop-color="#10b981" stop-opacity="0"/></linearGradient>
    <filter id="shadow" x="-10%" y="-10%" width="120%" height="130%"><feDropShadow dx="0" dy="8" stdDeviation="14" flood-color="#18181b" flood-opacity=".08"/></filter>
    <style>
      :root { color-scheme: light dark; }
      .bg { fill: url(#background); }
      .surface { fill: #ffffff; stroke: #e4e4e7; }
      .panel { fill: #ffffff; stroke: #e4e4e7; }
      .primary { fill: #18181b; }
      .secondary { fill: #71717a; }
      .grid { stroke: #e4e4e7; }
      text { font-family: Inter, ui-sans-serif, system-ui, -apple-system, BlinkMacSystemFont, "Segoe UI", sans-serif; }
      @media (prefers-color-scheme: dark) {
        .bg { fill: #09090b; }
        .surface, .panel { fill: #111113; stroke: #27272a; }
        .primary { fill: #fafafa; }
        .secondary { fill: #a1a1aa; }
        .grid { stroke: #27272a; }
      }
    </style>
  </defs>
  <rect class="bg" width="1000" height="957" rx="28"/>
  <g transform="translate(42 38)">
    <rect x="0" y="0" width="916" height="881" rx="22" class="surface" filter="url(#shadow)"/>
    <text x="30" y="45" class="primary" font-size="26" font-weight="750" letter-spacing="-.5">Repo Growth</text>
    <text x="30" y="70" class="secondary" font-size="14">MacRimi/repo-growth · Jul 22, 2026 – Oct 7, 2026</text>
    <g transform="translate(740 25)"><rect width="146" height="30" rx="15" fill="#8b5cf6" fill-opacity=".12"/><circle cx="17" cy="15" r="4" fill="#8b5cf6"/><text x="30" y="20" fill="#8b5cf6" font-size="11" font-weight="700" letter-spacing="1">LOCAL HISTORY</text></g>
    <g transform="translate(30 92)">
    <rect width="272" height="86" rx="16" class="panel"/>
    <rect x="16" y="17" width="6" height="52" rx="3" fill="#8b5cf6"/>
    <text x="38" y="34" class="secondary" font-size="12" font-weight="650" letter-spacing=".3">STARS</text>
    <text x="38" y="64" class="primary" font-size="27" font-weight="760" letter-spacing="-.5">7</text>
    <text x="246" y="63" text-anchor="end" fill="#8b5cf6" font-size="11" font-weight="650">+7 tracked</text>
  </g><g transform="translate(322 92)">
    <rect width="272" height="86" rx="16" class="panel"/>
    <rect x="16" y="17" width="6" height="52" rx="3" fill="#06b6d4"/>
    <text x="38" y="34" class="secondary" font-size="12" font-weight="650" letter-spacing=".3">FORKS</text>
    <text x="38" y="64" class="primary" font-size="27" font-weight="760" letter-spacing="-.5">0</text>
    <text x="246" y="63" text-anchor="end" fill="#06b6d4" font-size="11" font-weight="650">No change yet</text>
  </g><g transform="translate(614 92)">
    <rect width="272" height="86" rx="16" class="panel"/>
    <rect x="16" y="17" width="6" height="52" rx="3" fill="#10b981"/>
    <text x="38" y="34" class="secondary" font-size="12" font-weight="650" letter-spacing=".3">RELEASE DOWNLOADS</text>
    <text x="38" y="64" class="primary" font-size="27" font-weight="760" letter-spacing="-.5">0</text>
    <text x="246" y="63" text-anchor="end" fill="#10b981" font-size="11" font-weight="650">No change yet</text>
  </g>
    <g transform="translate(30 197)">
    <rect width="856" height="201" rx="16" class="panel"/>
    <circle cx="20" cy="27" r="5" fill="#8b5cf6"/>
    <text x="34" y="31" class="primary" font-size="14" font-weight="700">Stars</text>
    <text x="20" y="62" class="primary" font-size="20" font-weight="750">7</text>
    <text x="20" y="83" class="secondary" font-size="11">range 0–7</text>
    <line x1="220" x2="836" y1="20" y2="20" class="grid" stroke-width="1" stroke-dasharray="3 6"/><text x="210" y="24" text-anchor="end" class="secondary" font-size="9">7</text><line x1="220" x2="836" y1="95" y2="95" class="grid" stroke-width="1" stroke-dasharray="3 6"/><text x="210" y="99" text-anchor="end" class="secondary" font-size="9">4</text><line x1="220" x2="836" y1="170" y2="170" class="grid" stroke-width="1" stroke-dasharray="3 6"/><text x="210" y="174" text-anchor="end" class="secondary" font-size="9">0</text>
    <path d="M220 170 L228 170 L236 170 L244 170 L252 170 L260 170 L268 170 L276 170 L284 170 L292 170 L300 170 L308 170 L316 170 L324 170 L332 170 L340 170 L348 148.6 L356 148.6 L364 148.6 L372 148.6 L380 148.6 L388 148.6 L396 148.6 L404 148.6 L412 148.6 L420 127.1 L428 127.1 L436 127.1 L444 127.1 L452 105.7 L460 105.7 L468 105.7 L476 105.7 L484 84.3 L492 84.3 L500 62.9 L508 62.9 L516 41.4 L524 41.4 L532 41.4 L540 41.4 L548 41.4 L556 41.4 L564 41.4 L572 41.4 L580 41.4 L588 41.4 L596 41.4 L604 20 L612 20 L620 20 L628 20 L636 20 L644 20 L652 20 L660 20 L668 20 L676 20 L684 20 L692 20 L700 20 L708 20 L716 20 L724 20 L732 20 L740 20 L748 20 L756 20 L764 20 L772 20 L780 20 L788 20 L796 20 L804 20 L812 20 L820 20 L828 20 L836 20 L836 170 L220 170 Z" fill="url(#fill-stars)"/>
    <path d="M220 170 L228 170 L236 170 L244 170 L252 170 L260 170 L268 170 L276 170 L284 170 L292 170 L300 170 L308 170 L316 170 L324 170 L332 170 L340 170 L348 148.6 L356 148.6 L364 148.6 L372 148.6 L380 148.6 L388 148.6 L396 148.6 L404 148.6 L412 148.6 L420 127.1 L428 127.1 L436 127.1 L444 127.1 L452 105.7 L460 105.7 L468 105.7 L476 105.7 L484 84.3 L492 84.3 L500 62.9 L508 62.9 L516 41.4 L524 41.4 L532 41.4 L540 41.4 L548 41.4 L556 41.4 L564 41.4 L572 41.4 L580 41.4 L588 41.4 L596 41.4 L604 20 L612 20 L620 20 L628 20 L636 20 L644 20 L652 20 L660 20 L668 20 L676 20 L684 20 L692 20 L700 20 L708 20 L716 20 L724 20 L732 20 L740 20 L748 20 L756 20 L764 20 L772 20 L780 20 L788 20 L796 20 L804 20 L812 20 L820 20 L828 20 L836 20" fill="none" stroke="#8b5cf6" stroke-width="3" stroke-linecap="round" stroke-linejoin="round"/>
    <circle cx="836" cy="20" r="5" fill="#8b5cf6" stroke="#fff" stroke-width="2"/>
    <text x="220" y="194" text-anchor="start" class="secondary" font-size="9">Jul 22, 2026</text><text x="528" y="194" text-anchor="middle" class="secondary" font-size="9">Aug 29, 2026</text><text x="836" y="194" text-anchor="end" class="secondary" font-size="9">Oct 7, 2026</text>
  </g><g transform="translate(30 414)">
    <rect width="856" height="201" rx="16" class="panel"/>
    <circle cx="20" cy="27" r="5" fill="#06b6d4"/>
    <text x="34" y="31" class="primary" font-size="14" font-weight="700">Forks</text>
    <text x="20" y="62" class="primary" font-size="20" font-weight="750">0</text>
    <text x="20" y="83" class="secondary" font-size="11">range 0–0</text>
    <line x1="220" x2="836" y1="20" y2="20" class="grid" stroke-width="1" stroke-dasharray="3 6"/><text x="210" y="24" text-anchor="end" class="secondary" font-size="9">1</text><line x1="220" x2="836" y1="95" y2="95" class="grid" stroke-width="1" stroke-dasharray="3 6"/><text x="210" y="99" text-anchor="end" class="secondary" font-size="9">1</text><line x1="220" x2="836" y1="170" y2="170" class="grid" stroke-width="1" stroke-dasharray="3 6"/><text x="210" y="174" text-anchor="end" class="secondary" font-size="9">0</text>
    <path d="M220 170 L228 170 L236 170 L244 170 L252 170 L260 170 L268 170 L276 170 L284 170 L292 170 L300 170 L308 170 L316 170 L324 170 L332 170 L340 170 L348 170 L356 170 L364 170 L372 170 L380 170 L388 170 L396 170 L404 170 L412 170 L420 170 L428 170 L436 170 L444 170 L452 170 L460 170 L468 170 L476 170 L484 170 L492 170 L500 170 L508 170 L516 170 L524 170 L532 170 L540 170 L548 170 L556 170 L564 170 L572 170 L580 170 L588 170 L596 170 L604 170 L612 170 L620 170 L628 170 L636 170 L644 170 L652 170 L660 170 L668 170 L676 170 L684 170 L692 170 L700 170 L708 170 L716 170 L724 170 L732 170 L740 170 L748 170 L756 170 L764 170 L772 170 L780 170 L788 170 L796 170 L804 170 L812 170 L820 170 L828 170 L836 170 L836 170 L220 170 Z" fill="url(#fill-forks)"/>
    <path d="M220 170 L228 170 L236 170 L244 170 L252 170 L260 170 L268 170 L276 170 L284 170 L292 170 L300 170 L308 170 L316 170 L324 170 L332 170 L340 170 L348 170 L356 170 L364 170 L372 170 L380 170 L388 170 L396 170 L404 170 L412 170 L420 170 L428 170 L436 170 L444 170 L452 170 L460 170 L468 170 L476 170 L484 170 L492 170 L500 170 L508 170 L516 170 L524 170 L532 170 L540 170 L548 170 L556 170 L564 170 L572 170 L580 170 L588 170 L596 170 L604 170 L612 170 L620 170 L628 170 L636 170 L644 170 L652 170 L660 170 L668 170 L676 170 L684 170 L692 170 L700 170 L708 170 L716 170 L724 170 L732 170 L740 170 L748 170 L756 170 L764 170 L772 170 L780 170 L788 170 L796 170 L804 170 L812 170 L820 170 L828 170 L836 170" fill="none" stroke="#06b6d4" stroke-width="3" stroke-linecap="round" stroke-linejoin="round"/>
    <circle cx="836" cy="170" r="5" fill="#06b6d4" stroke="#fff" stroke-width="2"/>
    <text x="220" y="194" text-anchor="start" class="secondary" font-size="9">Jul 22, 2026</text><text x="528" y="194" text-anchor="middle" class="secondary" font-size="9">Aug 29, 2026</text><text x="836" y="194" text-anchor="end" class="secondary" font-size="9">Oct 7, 2026</text>
  </g><g transform="translate(30 631)">
    <rect width="856" height="201" rx="16" class="panel"/>
    <circle cx="20" cy="27" r="5" fill="#10b981"/>
    <text x="34" y="31" class="primary" font-size="14" font-weight="700">Release downloads</text>
    <text x="20" y="62" class="primary" font-size="20" font-weight="750">0</text>
    <text x="20" y="83" class="secondary" font-size="11">range 0–0</text>
    <line x1="220" x2="836" y1="20" y2="20" class="grid" stroke-width="1" stroke-dasharray="3 6"/><text x="210" y="24" text-anchor="end" class="secondary" font-size="9">1</text><line x1="220" x2="836" y1="95" y2="95" class="grid" stroke-width="1" stroke-dasharray="3 6"/><text x="210" y="99" text-anchor="end" class="secondary" font-size="9">1</text><line x1="220" x2="836" y1="170" y2="170" class="grid" stroke-width="1" stroke-dasharray="3 6"/><text x="210" y="174" text-anchor="end" class="secondary" font-size="9">0</text>
    <path d="M220 170 L228 170 L236 170 L244 170 L252 170 L260 170 L268 170 L276 170 L284 170 L292 170 L300 170 L308 170 L316 170 L324 170 L332 170 L340 170 L348 170 L356 170 L364 170 L372 170 L380 170 L388 170 L396 170 L404 170 L412 170 L420 170 L428 170 L436 170 L444 170 L452 170 L460 170 L468 170 L476 170 L484 170 L492 170 L500 170 L508 170 L516 170 L524 170 L532 170 L540 170 L548 170 L556 170 L564 170 L572 170 L580 170 L588 170 L596 170 L604 170 L612 170 L620 170 L628 170 L636 170 L644 170 L652 170 L660 170 L668 170 L676 170 L684 170 L692 170 L700 170 L708 170 L716 170 L724 170 L732 170 L740 170 L748 170 L756 170 L764 170 L772 170 L780 170 L788 170 L796 170 L804 170 L812 170 L820 170 L828 170 L836 170 L836 170 L220 170 Z" fill="url(#fill-downloads)"/>
    <path d="M220 170 L228 170 L236 170 L244 170 L252 170 L260 170 L268 170 L276 170 L284 170 L292 170 L300 170 L308 170 L316 170 L324 170 L332 170 L340 170 L348 170 L356 170 L364 170 L372 170 L380 170 L388 170 L396 170 L404 170 L412 170 L420 170 L428 170 L436 170 L444 170 L452 170 L460 170 L468 170 L476 170 L484 170 L492 170 L500 170 L508 170 L516 170 L524 170 L532 170 L540 170 L548 170 L556 170 L564 170 L572 170 L580 170 L588 170 L596 170 L604 170 L612 170 L620 170 L628 170 L636 170 L644 170 L652 170 L660 170 L668 170 L676 170 L684 170 L692 170 L700 170 L708 170 L716 170 L724 170 L732 170 L740 170 L748 170 L756 170 L764 170 L772 170 L780 170 L788 170 L796 170 L804 170 L812 170 L820 170 L828 170 L836 170" fill="none" stroke="#10b981" stroke-width="3" stroke-linecap="round" stroke-linejoin="round"/>
    <circle cx="836" cy="170" r="5" fill="#10b981" stroke="#fff" stroke-width="2"/>
    <text x="220" y="194" text-anchor="start" class="secondary" font-size="9">Jul 22, 2026</text><text x="528" y="194" text-anchor="middle" class="secondary" font-size="9">Aug 29, 2026</text><text x="836" y="194" text-anchor="end" class="secondary" font-size="9">Oct 7, 2026</text>
  </g>
    <text x="30" y="862" class="secondary" font-size="11">Updated Oct 7, 2026</text>
    <a href="https://github.com/MacRimi/repo-growth" target="_blank" aria-label="Open the Repo Growth project">
      <text x="886" y="862" fill="#8b5cf6" text-anchor="end" font-size="13" font-weight="700">Generated by Repo Growth ↗</text>
    </a>
  </g>
</svg>
