<?xml version="1.0" encoding="UTF-8"?>
<svg xmlns="http://www.w3.org/2000/svg" width="1000" height="804" viewBox="0 0 1000 804" role="img" aria-labelledby="title desc">
  <title id="title">Project growth for MacRimi/ProxMenux</title>
  <desc id="desc">Repository growth dashboard showing stars, forks, release downloads over time.</desc>
  <defs>
    <linearGradient id="background" x1="0" y1="0" x2="1" y2="1">
      <stop offset="0" stop-color="#fafafa"/><stop offset="1" stop-color="#f4f4f5"/>
    </linearGradient>
    <linearGradient id="fill-stars" x1="0" y1="0" x2="0" y2="1"><stop offset="0" stop-color="#8b5cf6" stop-opacity=".24"/><stop offset="1" stop-color="#8b5cf6" stop-opacity="0"/></linearGradient><linearGradient id="fill-forks" x1="0" y1="0" x2="0" y2="1"><stop offset="0" stop-color="#06b6d4" stop-opacity=".24"/><stop offset="1" stop-color="#06b6d4" stop-opacity="0"/></linearGradient><linearGradient id="fill-downloads" x1="0" y1="0" x2="0" y2="1"><stop offset="0" stop-color="#10b981" stop-opacity=".24"/><stop offset="1" stop-color="#10b981" stop-opacity="0"/></linearGradient>
    <filter id="shadow" x="-10%" y="-10%" width="120%" height="130%"><feDropShadow dx="0" dy="8" stdDeviation="14" flood-color="#18181b" flood-opacity=".08"/></filter>
    <style>
      :root { color-scheme: light dark; }
      .bg { fill: url(#background); }
      .surface { fill: #ffffff; stroke: #e4e4e7; }
      .panel { fill: #ffffff; stroke: #e4e4e7; }
      .primary { fill: #18181b; }
      .secondary { fill: #71717a; }
      .grid { stroke: #e4e4e7; }
      text { font-family: Inter, ui-sans-serif, system-ui, -apple-system, BlinkMacSystemFont, "Segoe UI", sans-serif; }
      @media (prefers-color-scheme: dark) {
        .bg { fill: #09090b; }
        .surface, .panel { fill: #111113; stroke: #27272a; }
        .primary { fill: #fafafa; }
        .secondary { fill: #a1a1aa; }
        .grid { stroke: #27272a; }
      }
    </style>
  </defs>
  <rect class="bg" width="1000" height="804" rx="28"/>
  <g transform="translate(42 38)">
    <rect x="0" y="0" width="916" height="728" rx="22" class="surface" filter="url(#shadow)"/>
    <text x="30" y="45" class="primary" font-size="26" font-weight="750" letter-spacing="-.5">Project growth</text>
    <text x="30" y="70" class="secondary" font-size="14">MacRimi/ProxMenux · Jan 15, 2025 – Jul 15, 2026</text>
    <g transform="translate(740 25)"><rect width="146" height="30" rx="15" fill="#8b5cf6" fill-opacity=".12"/><circle cx="17" cy="15" r="4" fill="#8b5cf6"/><text x="30" y="20" fill="#8b5cf6" font-size="11" font-weight="700" letter-spacing="1">LOCAL HISTORY</text></g>
    <g transform="translate(30 92)">
    <rect width="272" height="86" rx="16" class="panel"/>
    <rect x="16" y="17" width="6" height="52" rx="3" fill="#8b5cf6"/>
    <text x="38" y="34" class="secondary" font-size="12" font-weight="650" letter-spacing=".3">STARS</text>
    <text x="38" y="64" class="primary" font-size="27" font-weight="760" letter-spacing="-.5">2,542</text>
    <text x="246" y="63" text-anchor="end" fill="#8b5cf6" font-size="11" font-weight="650">+702 tracked</text>
  </g><g transform="translate(322 92)">
    <rect width="272" height="86" rx="16" class="panel"/>
    <rect x="16" y="17" width="6" height="52" rx="3" fill="#06b6d4"/>
    <text x="38" y="34" class="secondary" font-size="12" font-weight="650" letter-spacing=".3">FORKS</text>
    <text x="38" y="64" class="primary" font-size="27" font-weight="760" letter-spacing="-.5">314</text>
    <text x="246" y="63" text-anchor="end" fill="#06b6d4" font-size="11" font-weight="650">+78 tracked</text>
  </g><g transform="translate(614 92)">
    <rect width="272" height="86" rx="16" class="panel"/>
    <rect x="16" y="17" width="6" height="52" rx="3" fill="#10b981"/>
    <text x="38" y="34" class="secondary" font-size="12" font-weight="650" letter-spacing=".3">RELEASE DOWNLOADS</text>
    <text x="38" y="64" class="primary" font-size="27" font-weight="760" letter-spacing="-.5">51.8K</text>
    <text x="246" y="63" text-anchor="end" fill="#10b981" font-size="11" font-weight="650">+23.4K tracked</text>
  </g>
    <g transform="translate(30 197)">
    <rect width="856" height="150" rx="16" class="panel"/>
    <circle cx="20" cy="27" r="5" fill="#8b5cf6"/>
    <text x="34" y="31" class="primary" font-size="14" font-weight="700">Stars</text>
    <text x="20" y="62" class="primary" font-size="20" font-weight="750">2,542</text>
    <text x="20" y="83" class="secondary" font-size="11">range 1,840–2,542</text>
    <line x1="220" x2="836" y1="20" y2="20" class="grid" stroke-width="1" stroke-dasharray="3 6"/><text x="210" y="24" text-anchor="end" class="secondary" font-size="9">2,542</text><line x1="220" x2="836" y1="70" y2="70" class="grid" stroke-width="1" stroke-dasharray="3 6"/><text x="210" y="74" text-anchor="end" class="secondary" font-size="9">2,191</text><line x1="220" x2="836" y1="120" y2="120" class="grid" stroke-width="1" stroke-dasharray="3 6"/><text x="210" y="124" text-anchor="end" class="secondary" font-size="9">1,840</text>
    <path d="M220 120 L255 115.6 L286.6 110.9 L321.5 105.9 L355.4 100.9 L390.4 95.6 L424.2 90.4 L459.2 85 L494.2 79.4 L528 73.7 L563 68 L596.8 62.3 L631.8 56.5 L666.8 50.5 L698.4 44.5 L733.3 38.5 L767.2 32.4 L802.2 26.1 L836 20 L836 120 L220 120 Z" fill="url(#fill-stars)"/>
    <path d="M220 120 L255 115.6 L286.6 110.9 L321.5 105.9 L355.4 100.9 L390.4 95.6 L424.2 90.4 L459.2 85 L494.2 79.4 L528 73.7 L563 68 L596.8 62.3 L631.8 56.5 L666.8 50.5 L698.4 44.5 L733.3 38.5 L767.2 32.4 L802.2 26.1 L836 20" fill="none" stroke="#8b5cf6" stroke-width="3" stroke-linecap="round" stroke-linejoin="round"/>
    <circle cx="836" cy="20" r="5" fill="#8b5cf6" stroke="#fff" stroke-width="2"/>
    <text x="220" y="143" text-anchor="start" class="secondary" font-size="9">Jan 15, 2025</text><text x="528" y="143" text-anchor="middle" class="secondary" font-size="9">Oct 15, 2025</text><text x="836" y="143" text-anchor="end" class="secondary" font-size="9">Jul 15, 2026</text>
  </g><g transform="translate(30 363)">
    <rect width="856" height="150" rx="16" class="panel"/>
    <circle cx="20" cy="27" r="5" fill="#06b6d4"/>
    <text x="34" y="31" class="primary" font-size="14" font-weight="700">Forks</text>
    <text x="20" y="62" class="primary" font-size="20" font-weight="750">314</text>
    <text x="20" y="83" class="secondary" font-size="11">range 236–314</text>
    <line x1="220" x2="836" y1="20" y2="20" class="grid" stroke-width="1" stroke-dasharray="3 6"/><text x="210" y="24" text-anchor="end" class="secondary" font-size="9">314</text><line x1="220" x2="836" y1="70" y2="70" class="grid" stroke-width="1" stroke-dasharray="3 6"/><text x="210" y="74" text-anchor="end" class="secondary" font-size="9">275</text><line x1="220" x2="836" y1="120" y2="120" class="grid" stroke-width="1" stroke-dasharray="3 6"/><text x="210" y="124" text-anchor="end" class="secondary" font-size="9">236</text>
    <path d="M220 120 L255 114.9 L286.6 108.5 L321.5 103.3 L355.4 98.2 L390.4 91.8 L424.2 86.7 L459.2 81.5 L494.2 75.1 L528 70 L563 64.9 L596.8 58.5 L631.8 53.3 L666.8 48.2 L698.4 41.8 L733.3 36.7 L767.2 31.5 L802.2 25.1 L836 20 L836 120 L220 120 Z" fill="url(#fill-forks)"/>
    <path d="M220 120 L255 114.9 L286.6 108.5 L321.5 103.3 L355.4 98.2 L390.4 91.8 L424.2 86.7 L459.2 81.5 L494.2 75.1 L528 70 L563 64.9 L596.8 58.5 L631.8 53.3 L666.8 48.2 L698.4 41.8 L733.3 36.7 L767.2 31.5 L802.2 25.1 L836 20" fill="none" stroke="#06b6d4" stroke-width="3" stroke-linecap="round" stroke-linejoin="round"/>
    <circle cx="836" cy="20" r="5" fill="#06b6d4" stroke="#fff" stroke-width="2"/>
    <text x="220" y="143" text-anchor="start" class="secondary" font-size="9">Jan 15, 2025</text><text x="528" y="143" text-anchor="middle" class="secondary" font-size="9">Oct 15, 2025</text><text x="836" y="143" text-anchor="end" class="secondary" font-size="9">Jul 15, 2026</text>
  </g><g transform="translate(30 529)">
    <rect width="856" height="150" rx="16" class="panel"/>
    <circle cx="20" cy="27" r="5" fill="#10b981"/>
    <text x="34" y="31" class="primary" font-size="14" font-weight="700">Release downloads</text>
    <text x="20" y="62" class="primary" font-size="20" font-weight="750">51.8K</text>
    <text x="20" y="83" class="secondary" font-size="11">range 28.4K–51.8K</text>
    <line x1="220" x2="836" y1="20" y2="20" class="grid" stroke-width="1" stroke-dasharray="3 6"/><text x="210" y="24" text-anchor="end" class="secondary" font-size="9">51.8K</text><line x1="220" x2="836" y1="70" y2="70" class="grid" stroke-width="1" stroke-dasharray="3 6"/><text x="210" y="74" text-anchor="end" class="secondary" font-size="9">40.1K</text><line x1="220" x2="836" y1="120" y2="120" class="grid" stroke-width="1" stroke-dasharray="3 6"/><text x="210" y="124" text-anchor="end" class="secondary" font-size="9">28.4K</text>
    <path d="M220 120 L255 115.3 L286.6 110.4 L321.5 105.3 L355.4 100.1 L390.4 94.8 L424.2 89.4 L459.2 83.9 L494.2 78.3 L528 72.7 L563 67.1 L596.8 61.3 L631.8 55.6 L666.8 49.8 L698.4 43.9 L733.3 38 L767.2 32 L802.2 26 L836 20 L836 120 L220 120 Z" fill="url(#fill-downloads)"/>
    <path d="M220 120 L255 115.3 L286.6 110.4 L321.5 105.3 L355.4 100.1 L390.4 94.8 L424.2 89.4 L459.2 83.9 L494.2 78.3 L528 72.7 L563 67.1 L596.8 61.3 L631.8 55.6 L666.8 49.8 L698.4 43.9 L733.3 38 L767.2 32 L802.2 26 L836 20" fill="none" stroke="#10b981" stroke-width="3" stroke-linecap="round" stroke-linejoin="round"/>
    <circle cx="836" cy="20" r="5" fill="#10b981" stroke="#fff" stroke-width="2"/>
    <text x="220" y="143" text-anchor="start" class="secondary" font-size="9">Jan 15, 2025</text><text x="528" y="143" text-anchor="middle" class="secondary" font-size="9">Oct 15, 2025</text><text x="836" y="143" text-anchor="end" class="secondary" font-size="9">Jul 15, 2026</text>
  </g>
    <text x="30" y="709" class="secondary" font-size="11">Updated Jul 22, 2026</text>
    <a href="https://github.com/MacRimi/repo-growth" target="_blank" aria-label="Open the Repo Growth project">
      <text x="886" y="709" fill="#8b5cf6" text-anchor="end" font-size="13" font-weight="700">Generated by Repo Growth ↗</text>
    </a>
  </g>
</svg>
